# xmcd
#
# Track frame offsets: 
#        150
#        11761
#        25766
#        37189
#        48175
#        59982
#        73526
#        83471
#        94821
#        104766
#        118691
#        129079
#
# Disc length: 1887 seconds
#
# Revision: 0
# Processed by: cddbd v1.5.2PL0 Copyright (c) Steve Scherf et al.
# Submitted via: ExactAudioCopy v0.95b3
#
DISCID=a0075d0c
DTITLE=Brenda Lee - Let Me Sing 
DYEAR=1900
DGENRE=
TTITLE0=Night And Day
TTITLE1=The End Of The World
TTITLE2=Our Day Will Come
TTITLE3=Your The Reason I'm Living
TTITLE4=Break It To Me Gently
TTITLE5=Where Are You
TTITLE6=When Your Lover Has Gone
TTITLE7=Losing You
TTITLE8=I Wanna Be Around
TTITLE9=Out In The Cold Again
TTITLE10=At Last
TTITLE11=There Goes My Heart
EXTD=
EXTT0=
EXTT1=
EXTT2=
EXTT3=
EXTT4=
EXTT5=
EXTT6=
EXTT7=
EXTT8=
EXTT9=
EXTT10=
EXTT11=
PLAYORDER=
